<?xml version="1.0" encoding="utf-8"?>
<!-- Generator: Adobe Illustrator 21.1.0, SVG Export Plug-In . SVG Version: 6.00 Build 0)  -->
<svg version="1.1" id="Layer_1" xmlns="http://www.w3.org/2000/svg" xmlns:xlink="http://www.w3.org/1999/xlink" x="0px" y="0px"
	 viewBox="0 0 294 56" style="enable-background:new 0 0 294 56;" xml:space="preserve">
<style type="text/css">
	.st0{fill:#FFFFFF;}
</style>
<g>
	<path class="st0" d="M29.1,16.4H14v8.1h13.8v10.6H14V54H1.4V5.7h27.6V16.4z"/>
	<path class="st0" d="M33.7,37.3c0-2.4,0.5-4.7,1.5-6.8c1-2.1,2.3-3.9,4.1-5.5c1.7-1.6,3.8-2.8,6.2-3.7c2.4-0.9,5-1.3,7.9-1.3
		c2.8,0,5.4,0.4,7.8,1.3c2.4,0.9,4.5,2.1,6.3,3.6c1.8,1.6,3.1,3.4,4.1,5.6c1,2.2,1.5,4.5,1.5,7.1c0,2.6-0.5,5-1.5,7.1
		c-1,2.2-2.4,4-4.1,5.6c-1.8,1.6-3.9,2.8-6.3,3.6c-2.5,0.9-5.1,1.3-8,1.3c-2.8,0-5.4-0.4-7.8-1.3c-2.4-0.9-4.4-2.1-6.2-3.6
		c-1.7-1.6-3.1-3.5-4.1-5.7C34.2,42.4,33.7,40,33.7,37.3z M45.9,37.4c0,1.1,0.2,2.1,0.6,3c0.4,0.9,0.9,1.7,1.6,2.4
		c0.7,0.7,1.4,1.2,2.4,1.6c0.9,0.4,1.9,0.6,2.9,0.6s2-0.2,2.9-0.6c0.9-0.4,1.7-0.9,2.4-1.6c0.7-0.7,1.2-1.5,1.6-2.4
		c0.4-0.9,0.6-1.9,0.6-3c0-1-0.2-2-0.6-2.9c-0.4-0.9-0.9-1.7-1.6-2.4c-0.7-0.7-1.5-1.2-2.4-1.6c-0.9-0.4-1.9-0.6-2.9-0.6
		s-2,0.2-2.9,0.6c-0.9,0.4-1.7,0.9-2.4,1.6c-0.7,0.7-1.2,1.5-1.6,2.4C46.1,35.4,45.9,36.4,45.9,37.4z"/>
	<path class="st0" d="M78.5,37.3c0-2.4,0.5-4.7,1.5-6.8c1-2.1,2.3-3.9,4.1-5.5c1.7-1.6,3.8-2.8,6.2-3.7c2.4-0.9,5-1.3,7.9-1.3
		c2.8,0,5.4,0.4,7.8,1.3c2.4,0.9,4.5,2.1,6.3,3.6c1.8,1.6,3.1,3.4,4.1,5.6c1,2.2,1.5,4.5,1.5,7.1c0,2.6-0.5,5-1.5,7.1
		c-1,2.2-2.4,4-4.1,5.6c-1.8,1.6-3.9,2.8-6.3,3.6c-2.5,0.9-5.1,1.3-8,1.3c-2.8,0-5.4-0.4-7.8-1.3c-2.4-0.9-4.4-2.1-6.2-3.6
		c-1.7-1.6-3.1-3.5-4.1-5.7C79,42.4,78.5,40,78.5,37.3z M90.7,37.4c0,1.1,0.2,2.1,0.6,3c0.4,0.9,0.9,1.7,1.6,2.4
		c0.7,0.7,1.4,1.2,2.4,1.6c0.9,0.4,1.9,0.6,2.9,0.6s2-0.2,2.9-0.6c0.9-0.4,1.7-0.9,2.4-1.6c0.7-0.7,1.2-1.5,1.6-2.4
		c0.4-0.9,0.6-1.9,0.6-3c0-1-0.2-2-0.6-2.9c-0.4-0.9-0.9-1.7-1.6-2.4c-0.7-0.7-1.5-1.2-2.4-1.6c-0.9-0.4-1.9-0.6-2.9-0.6
		s-2,0.2-2.9,0.6c-0.9,0.4-1.7,0.9-2.4,1.6c-0.7,0.7-1.2,1.5-1.6,2.4C90.9,35.4,90.7,36.4,90.7,37.4z"/>
	<path class="st0" d="M149.9,0.9h11.6V54h-11.6v-3.6c-2.5,3.1-5.8,4.7-10,4.7c-2.4,0-4.6-0.4-6.6-1.3c-2-0.9-3.8-2.1-5.2-3.7
		c-1.5-1.6-2.7-3.4-3.5-5.6c-0.8-2.1-1.2-4.4-1.2-6.9c0-2.3,0.4-4.6,1.2-6.7c0.8-2.1,1.9-4,3.4-5.5c1.5-1.6,3.2-2.8,5.2-3.7
		c2-0.9,4.3-1.4,6.7-1.4c4.1,0,7.5,1.4,10.2,4.3V0.9z M135.3,37.5c0,1.1,0.2,2.1,0.6,3c0.4,0.9,0.9,1.7,1.6,2.4
		c0.7,0.7,1.5,1.2,2.4,1.6c0.9,0.4,1.9,0.6,3,0.6c1,0,2-0.2,2.9-0.6c0.9-0.4,1.7-0.9,2.4-1.6c0.7-0.7,1.2-1.5,1.6-2.4
		c0.4-0.9,0.6-1.9,0.6-2.9c0-1-0.2-2-0.6-2.9c-0.4-0.9-0.9-1.7-1.6-2.4c-0.7-0.7-1.5-1.2-2.4-1.6c-0.9-0.4-1.9-0.6-2.9-0.6
		s-2,0.2-2.9,0.6c-0.9,0.4-1.7,0.9-2.4,1.6c-0.7,0.7-1.2,1.5-1.6,2.3C135.5,35.5,135.3,36.5,135.3,37.5z"/>
	<path class="st0" d="M191.2,29.6c-2.1-1.1-4.2-1.7-6.3-1.7c-1.1,0-1.9,0.2-2.6,0.6c-0.7,0.4-1,1-1,1.7c0,0.4,0.1,0.7,0.2,0.9
		c0.1,0.2,0.3,0.5,0.7,0.7c0.4,0.2,0.9,0.4,1.6,0.6c0.7,0.2,1.6,0.4,2.8,0.6c3.2,0.6,5.6,1.8,7.2,3.4c1.6,1.6,2.4,3.7,2.4,6.3
		c0,1.9-0.4,3.6-1.2,5.2c-0.8,1.5-1.8,2.8-3.2,3.9c-1.4,1-3,1.9-4.9,2.4s-4,0.9-6.3,0.9c-4.4,0-8.8-1.3-13.1-3.8l4.2-8.2
		c3.2,2.2,6.3,3.3,9.2,3.3c1.1,0,1.9-0.2,2.6-0.7c0.7-0.5,1-1.1,1-1.8c0-0.4-0.1-0.8-0.2-1.1c-0.1-0.3-0.3-0.5-0.7-0.8
		c-0.3-0.2-0.8-0.4-1.5-0.6c-0.7-0.2-1.5-0.4-2.6-0.6c-3.6-0.7-6.1-1.8-7.5-3.2c-1.4-1.4-2.1-3.4-2.1-5.9c0-1.8,0.3-3.5,1-5
		c0.7-1.5,1.7-2.7,2.9-3.7c1.3-1,2.8-1.8,4.6-2.4c1.8-0.6,3.8-0.8,6-0.8c3.6,0,7.1,0.7,10.6,2.1L191.2,29.6z"/>
	<path class="st0" d="M215.8,30.8V54h-11.6V30.8h-3.8v-9.7h3.8v-9.9h11.6v9.9h6.6v9.7H215.8z"/>
	<path class="st0" d="M237.9,39.5c0,5,2.3,7.5,7,7.5c2.5,0,4.4-1,5.7-3.1h11.2c-2.3,7.5-7.9,11.3-17,11.3c-2.8,0-5.3-0.4-7.6-1.2
		c-2.3-0.8-4.3-2-5.9-3.6c-1.6-1.5-2.9-3.4-3.8-5.5c-0.9-2.1-1.3-4.5-1.3-7.2c0-2.7,0.4-5.2,1.3-7.4c0.9-2.2,2.1-4.1,3.6-5.6
		c1.6-1.5,3.5-2.7,5.7-3.6c2.2-0.8,4.8-1.2,7.6-1.2c2.8,0,5.3,0.4,7.5,1.2c2.2,0.8,4.1,2,5.6,3.6c1.5,1.6,2.7,3.5,3.5,5.8
		c0.8,2.3,1.2,4.9,1.2,7.7v1.2H237.9z M251.4,32.8c-0.4-1.6-1.2-2.9-2.4-3.9c-1.2-1-2.6-1.5-4.4-1.5c-1.8,0-3.3,0.5-4.4,1.4
		c-1.1,0.9-1.8,2.3-2.1,4H251.4z"/>
	<path class="st0" d="M268.8,21.2h11.6v5.4c1.2-2,2.8-3.5,4.5-4.5c1.8-1,3.9-1.6,6.3-1.6c0.3,0,0.6,0,1,0c0.4,0,0.8,0,1.2,0.1v11.1
		c-1.5-0.8-3.2-1.2-5-1.2c-2.7,0-4.7,0.8-6,2.4c-1.3,1.6-2,3.9-2,7V54h-11.6V21.2z"/>
</g>
</svg>
